<?xml version="1.0" encoding="utf-8"?>
<!-- Generator: Adobe Illustrator 16.0.0, SVG Export Plug-In . SVG Version: 6.00 Build 0)  -->
<!DOCTYPE svg PUBLIC "-//W3C//DTD SVG 1.0//EN" "http://www.w3.org/TR/2001/REC-SVG-20010904/DTD/svg10.dtd">
<svg version="1.0" id="Layer_1" xmlns="http://www.w3.org/2000/svg" xmlns:xlink="http://www.w3.org/1999/xlink" x="0px" y="0px"
	 width="800px" height="800px" viewBox="0 0 800 800" enable-background="new 0 0 800 800" xml:space="preserve">
<g>
	<path fill="#334166" d="M313.181,228.156c-1.659,2.21-3.317,3.868-4.977,5.525c-47.556-9.946-103.408-27.075-144.881-46.967
		c0.553-0.276,0.968-0.553,1.383-0.829l0,0c0.415-0.276,0.83-0.553,1.382-0.829c2.765-1.657,5.53-3.314,8.295-4.42
		c0.829-0.276,1.521-0.69,2.212-1.105c0.691-0.414,1.382-0.828,2.211-1.104l9.954-4.974c0.553-0.276,1.244-0.553,1.935-0.829
		s1.382-0.552,1.936-0.828c2.406-1.202,4.812-2.114,7.006-2.945c0.833-0.315,1.635-0.619,2.395-0.923
		c2.135-0.427,3.939-1.183,5.924-2.014c0.586-0.245,1.188-0.497,1.818-0.749c2.211-1.105,4.424-2.21,6.636-2.763
		c39.261-14.919,80.735-24.313,123.314-28.732l16.59-1.658c1.659-0.553,3.871-0.553,5.53-0.553c1.935,0,3.87-0.138,5.806-0.275
		c1.935-0.139,3.87-0.277,5.806-0.277c2.212-0.552,4.977-0.552,7.189-0.552h14.377h3.317h0.554c19.354,0,38.709,1.104,56.956,3.315
		c1.107,0.552,1.66,0.552,2.766,0.552c5.531,0.553,10.508,1.105,15.484,1.658c0.758,0,1.518,0.064,2.254,0.128
		c1.41,0.121,2.738,0.234,3.828-0.128c1.936,0.275,3.732,0.552,5.527,0.828h0.002c1.799,0.276,3.596,0.553,5.531,0.829l8.293,1.658
		c1.385,0.275,2.904,0.552,4.426,0.828c1.52,0.276,3.041,0.553,4.424,0.829c1.381,0.276,2.902,0.553,4.424,0.829
		c1.521,0.275,3.041,0.552,4.424,0.828c2.766,1.105,5.529,1.658,8.295,2.211c1.381,0.276,2.764,0.69,4.146,1.104
		c1.383,0.415,2.766,0.829,4.146,1.105c1.66,0.553,3.18,0.967,4.701,1.382c1.521,0.414,3.041,0.828,4.701,1.381l6.635,1.658
		c2.641,0.659,5.281,1.516,7.803,2.334c1.705,0.553,3.355,1.088,4.916,1.534c0.553,0.275,0.969,0.414,1.383,0.552
		c0.414,0.139,0.83,0.276,1.383,0.553c29.307,9.394,55.297,21.55,76.861,33.706c0.279,0.276,0.559,0.414,0.83,0.552
		c0.279,0.139,0.553,0.276,0.83,0.553c0.281,0.276,0.553,0.415,0.832,0.553c0.271,0.138,0.553,0.276,0.83,0.553
		c-40.369,22.102-93.455,38.679-145.438,46.415c-0.389-0.887-0.799-1.903-1.254-3.03c-6.633-16.44-22.623-56.079-120.953-47.806
		l-15.484-37.021l-16.037,5.525l3.872,37.574c0,0-30.414,12.708-40.367,19.339C310.417,217.104,312.076,223.735,313.181,228.156z
		 M278.817,264.882c-14.042,14.614-30.679,31.929-35.864,39.526c-94.559-14.365-150.411-30.391-176.954-39.783
		c0.553-0.829,1.106-1.52,1.659-2.21l0,0l0,0c0.553-0.691,1.106-1.382,1.659-2.211c0.553-0.552,1.106-1.243,1.659-1.934l0,0
		c0.553-0.69,1.106-1.382,1.659-1.934c1.106-1.105,2.212-2.349,3.318-3.592c1.105-1.244,2.212-2.487,3.318-3.592
		c0.553-1.104,1.659-2.21,2.765-3.315c1.105-1.104,2.35-2.21,3.594-3.314h0l0,0c1.244-1.105,2.488-2.211,3.594-3.316l3.318-3.314
		c1.381-1.105,2.763-2.348,4.145-3.59h0.001v-0.001l0,0l0,0l0,0l0,0l0,0l0,0h0l0,0v-0.001l0,0c1.383-1.243,2.766-2.487,4.148-3.592
		l2.212-2.211c12.165-10.498,24.883-19.339,37.049-27.074c0.276,0,0.415-0.139,0.553-0.276c0.138-0.139,0.276-0.276,0.553-0.276
		l4.977-3.315c20.46,9.394,77.97,34.258,152.07,48.625C294.727,248.323,287.239,256.116,278.817,264.882z M505.619,314.906
		c111.148-6.077,201.287-28.731,235.572-40.889c-0.559-0.552-0.967-1.104-1.383-1.657s-0.83-1.105-1.383-1.657
		c-0.277-0.277-0.557-0.691-0.83-1.105c-0.279-0.415-0.551-0.829-0.83-1.105l-8.295-9.945l-0.551-0.554
		c-2.766-3.314-5.529-6.076-8.846-9.391v-0.001l-0.006-0.001l-2.766-2.763l-6.633-6.631c-1.66-1.657-3.316-3.314-4.977-4.42
		c-0.832-0.828-1.797-1.656-2.758-2.483l0,0h-0.008v-0.001l0,0l0,0l0,0l0,0v-0.001l0,0l0,0v-0.001V232.3l0,0l0,0l0,0l0,0v-0.001l0,0
		v-0.001h-0.006l0,0l0,0c-0.967-0.829-1.934-1.656-2.758-2.484c-0.832-0.829-1.662-1.52-2.492-2.21
		c-0.824-0.69-1.654-1.382-2.486-2.21v-0.002c-3.316-2.763-6.639-5.524-10.506-8.287l-0.553-0.552
		c-7.742-6.079-15.484-11.604-23.227-16.024c-19.352,10.499-71.334,34.811-156.492,47.52
		C512.254,269.598,505.619,314.906,505.619,314.906z M367.374,331.483c0,0-45.897,22.655-66.357,58.019H15.678
		c0-2.763,0-4.974,0.553-6.631v-0.553c0.276-2.21,0.553-4.282,0.83-6.354c0.276-2.072,0.553-4.145,0.83-6.354v-0.554
		c0.242-1.449,0.589-3.004,0.95-4.618c0.464-2.078,0.951-4.255,1.262-6.433c0.553-0.552,0.553-1.104,0.553-1.657
		c0.553-3.315,1.106-6.631,2.212-9.946v-1.105c0.553-1.657,1.106-3.453,1.659-5.249h0c0.553-1.796,1.106-3.592,1.659-5.249
		c5.53-17.13,13.825-34.811,26.543-53.045c0.277-0.276,0.415-0.553,0.553-0.829s0.276-0.553,0.553-0.829
		c0.206-0.205,0.335-0.488,0.473-0.789c0.233-0.51,0.491-1.074,1.186-1.421c48.109,15.472,126.08,33.153,189.673,41.442
		c28.608,46.258,56.238,23.58,70.923,11.527c0.927-0.761,1.802-1.479,2.623-2.135C336.96,329.826,367.374,331.483,367.374,331.483z
		 M490.689,389.502h293.633c0-2.21,0-4.973-0.553-7.184c-1.109-17.129-4.977-34.811-11.615-52.492v-0.553
		c-1.104-3.315-2.766-7.183-4.42-10.499c-0.279-0.275-0.416-0.69-0.553-1.104c-0.143-0.414-0.277-0.828-0.557-1.104
		c-0.57-1.143-1.072-2.219-1.563-3.251v-0.002l0,0v-0.006l-0.006-0.006v-0.004v-0.004c-0.924-1.959-1.768-3.764-2.852-5.569
		l-1.662-3.315c-0.793-1.989-1.877-3.692-3.043-5.521v-0.001c-0.453-0.711-0.918-1.44-1.383-2.213
		c-0.551-0.83-0.967-1.659-1.383-2.488l0,0c-0.414-0.828-0.83-1.657-1.381-2.485c-0.553-0.553-0.553-1.105-0.553-1.105
		c-0.873,0.252-1.854,0.54-2.949,0.86c-25.273,7.387-109.693,32.062-246.443,39.476c-1.473,7.35-3.422,15.099-5.365,22.822
		C494.871,366.352,491.717,378.883,490.689,389.502z M15.678,404.42h276.49c-6.083,11.604-11.06,38.127-9.954,51.389
		c-139.532,12.393-206.137,33.955-231.41,42.137c-1.77,0.573-3.337,1.08-4.713,1.515c-0.553,0-0.553-0.553-0.553-0.553
		c0-0.553-0.553-1.657-1.106-2.21c-0.829-1.382-1.659-2.901-2.489-4.421l0-0.001c-0.829-1.519-1.658-3.038-2.488-4.419l-1.659-3.316
		c-1.659-2.762-3.318-6.077-4.977-9.393c-0.276-0.276-0.415-0.553-0.553-0.829s-0.276-0.552-0.553-0.829
		c-0.83-1.933-1.521-3.867-2.211-5.802c-0.692-1.934-1.383-3.867-2.212-5.802v-0.552c-0.471-1.648-1.042-3.296-1.629-4.988
		c-0.79-2.277-1.606-4.632-2.241-7.168v-0.553c-1.106-3.315-2.212-7.184-3.318-11.052c0-0.275-0.138-0.69-0.277-1.104
		c-0.138-0.415-0.276-0.829-0.276-1.104c-0.276-1.382-0.553-2.901-0.829-4.422c-0.276-1.519-0.553-3.039-0.83-4.42
		c-0.553-1.658-1.106-3.867-1.106-5.525c0-1.104-0.138-2.21-0.276-3.315c-0.138-1.104-0.276-2.21-0.276-3.315
		c0-1.381-0.138-2.624-0.276-3.868c-0.138-1.242-0.276-2.486-0.276-3.867V404.42z M489.029,404.42
		c-2.211,23.761,8.295,44.205,14.932,52.494c132.348,12.165,220.096,39.019,243.355,46.135l1.221,0.375l0.779,0.238l0.721,0.219
		c6.639-9.946,13.822-23.208,20.461-38.68c0-0.553,0-0.553,0.553-1.105l0,0c1.104-2.763,2.213-5.525,2.764-8.287
		c0.311-0.62,0.447-1.241,0.609-1.959c0.117-0.562,0.252-1.183,0.494-1.91c0.559-2.209,1.111-4.42,2.213-6.63
		c0.279-1.105,0.551-2.071,0.832-3.039c0.277-0.967,0.551-1.934,0.83-3.039c0.273-0.828,0.416-1.658,0.551-2.486
		c0.137-0.828,0.279-1.658,0.553-2.486c1.109-3.868,1.662-7.736,2.213-11.604v-1.105c0.551-3.868,1.109-8.289,1.109-12.156v-1.657
		v-3.868C773.814,404.42,500.088,404.42,489.029,404.42z M507.832,500.564c10.506-11.603,4.977-28.18,4.977-28.18
		c97.275,7.199,194.549,34.025,224.057,42.161c2.193,0.606,4.016,1.108,5.43,1.49c-0.273,0.554-0.689,0.967-1.104,1.382
		c-0.416,0.414-0.832,0.828-1.109,1.381c-0.553,1.658-1.656,2.764-2.766,3.868l0,0c-1.104,1.381-2.213,2.625-3.316,3.868
		c-1.104,1.242-2.213,2.486-3.316,3.868l-3.322,3.314c-1.104,1.105-2.07,2.21-3.037,3.315l0,0v0.002
		c-0.967,1.104-1.934,2.208-3.043,3.313l-4.979,4.973l-4.979,4.974c-1.104,0.829-2.068,1.796-3.037,2.763
		c-0.965,0.967-1.934,1.934-3.043,2.763l0,0c-1.66,1.658-3.316,3.314-5.529,4.973c-0.83,0.829-1.66,1.521-2.486,2.211
		c-0.83,0.69-1.66,1.381-2.49,2.209c-2.766,2.764-5.529,4.974-8.846,7.184l-1.662,1.658c-7.742,6.078-16.035,11.604-24.33,16.577
		c-0.551,0.275-0.967,0.552-1.383,0.828c-0.414,0.276-0.83,0.553-1.381,0.828l-3.316,1.658c-3.014-1.156-6.547-2.568-10.576-4.179
		v-0.001c-34.441-13.764-105.094-41.998-195.688-49.418c9.607-13.44,41.334-17.707,56.025-19.683
		c2.219-0.298,4.049-0.544,5.355-0.762v-14.92h-218.98v14.92c0,0,46.45,0.553,58.063,19.339
		c-125.527,10.499-190.779,50.836-199.073,56.361c-1.66-0.553-3.318-1.658-4.977-2.764c-0.829-0.552-1.52-0.966-2.21-1.38
		l-0.001-0.001l-0.002-0.001c-0.69-0.414-1.381-0.828-2.21-1.38l-9.954-6.631c-0.553-0.276-0.968-0.553-1.383-0.83
		c-0.415-0.275-0.83-0.552-1.382-0.828l0-0.001c-3.318-2.21-6.635-4.419-9.953-7.182c-1.106-1.105-1.659-1.658-2.765-2.211
		c-1.658-1.381-3.179-2.624-4.699-3.866l0-0.001c-1.521-1.243-3.042-2.486-4.701-3.868c-0.553-0.276-0.968-0.69-1.382-1.104
		c-0.415-0.415-0.83-0.83-1.383-1.105c-2.765-2.211-6.083-4.973-8.847-7.736c-0.386-0.771-1.041-1.272-1.589-1.692
		c-0.238-0.184-0.456-0.351-0.624-0.518c-3.318-2.763-6.635-6.078-9.4-8.841l-1.106-1.104c-3.318-3.316-6.635-6.631-9.4-9.947
		c-2.3-2.298-4.334-4.862-6.287-7.322l-0.001-0.002h0l0-0.001c-0.864-1.088-1.711-2.156-2.559-3.172
		c-1.106-1.105-1.659-1.658-2.212-2.764l-4.977-6.631c14.931-5.525,98.983-33.153,228.935-42.546
		c1.105,14.365,5.53,30.39,5.53,30.39H507.832z M442.027,552.505c-1.107,5.526-0.553,16.577,9.953,23.76
		c6.082,4.421,13.271,6.631,22.119,7.736l0.002,0.001c5.529,0.552,11.059,1.104,18.246,1.104c3.932,0,6.99-0.109,10.387-0.231h0.002
		h0.002l0,0c4.246-0.151,9.025-0.321,16.705-0.321v61.885c20.461-4.42,41.475-11.051,61.936-18.233c0,0,0.553,0,0.553-0.553
		c2.488-1.105,5.113-2.071,7.74-3.039c2.627-0.967,5.254-1.934,7.742-3.039h0.553c10.508-4.42,20.461-8.841,29.309-13.814
		c0.297-0.147,0.553-0.295,0.791-0.433c0.65-0.376,1.164-0.672,1.975-0.672c0.828-0.275,1.658-0.69,2.488-1.105
		c0.828-0.414,1.658-0.828,2.488-1.104C632.805,603.34,550.965,562.451,442.027,552.505z M164.707,605.826
		c-0.83-0.414-1.659-0.828-2.488-1.381c33.179-22.655,100.089-48.072,191.332-54.15c0.552,3.867,1.658,18.787-9.955,26.522
		c-6.635,4.42-19.908,6.631-33.179,7.184c-18.249,1.105-37.05,0-37.05,0v62.99c-0.728-0.242-1.349-0.378-1.91-0.501
		c-0.719-0.157-1.339-0.293-1.96-0.604c-2.212-0.552-4.424-1.104-6.083-1.656c-2.816-0.626-5.456-1.429-8.019-2.207l-0.001-0.001
		c-1.965-0.597-3.884-1.182-5.804-1.661c-0.277,0-0.554-0.138-0.83-0.275s-0.553-0.277-0.829-0.277
		c-28.755-8.84-55.851-19.339-78.523-31.495c-0.423-0.21-0.764-0.341-1.057-0.452c-0.472-0.18-0.813-0.311-1.155-0.652
		C166.365,606.655,165.536,606.241,164.707,605.826z M299.356,602.233h40.368v12.156h-25.438v14.919h23.779v12.156h-23.779v26.522
		h-14.93V602.233z M366.267,668.54v-66.307h-14.93v66.307H366.267z M379.539,602.786c5.529-1.104,12.719-1.104,20.46-1.104
		c12.718,0,21.015,2.21,27.097,7.183c6.635,4.973,11.059,13.262,11.059,24.865c0,12.708-4.424,21.549-11.059,27.074
		c-7.189,6.078-17.695,8.842-30.415,8.842c-7.742,0-13.272-0.553-17.143-1.105V602.786z M394.468,657.489
		c1.106,0.553,3.319,0.553,4.978,0.553c13.824,0,22.671-7.184,22.671-23.208c0-13.813-7.74-20.997-21.014-20.997
		c-2.102,0-3.761,0.223-4.975,0.385l0,0c-0.702,0.094-1.255,0.168-1.66,0.168V657.489z M463.039,640.359h23.777v-12.155h-24.33
		V614.39h25.99v-12.156h-40.922v66.307h42.58v-12.156h-27.096V640.359z"/>
</g>
</svg>
